<svg width="896" height="896" viewBox="0 0 896 896" xmlns="http://www.w3.org/2000/svg"><g fill="none" fill-rule="evenodd"><path d="M709 408L194 832 34 216l181 366 302-366-64-64 409-89-89 409-64-64z" fill="#B71C1C"/><path d="M421.172 487.828L493 416l-56-56 16-16 32 32 224-224 89-25-25 89-224 224 32 32-16 16-56-56-71.828 71.828A31.885 31.885 0 0 1 440 517c0 17.673-14.327 32-32 32-17.673 0-32-14.327-32-32 0-17.673 14.327-32 32-32 4.696 0 9.155 1.011 13.172 2.828z" fill="#FFF"/><path d="M733 176l22-6-6 22-208 208-16-16 208-208z" fill="#B71C1C"/></g></svg>