<svg width="896" height="896" viewBox="0 0 896 896" xmlns="http://www.w3.org/2000/svg"><g fill="none" fill-rule="evenodd"><path d="M709 408L194 832 34 216l181 366 302-366-64-64 409-89-89 409-64-64z" fill="#B71C1C"/><path d="M417.19 483.81L489 412l-52-52 16-16 32 32 224-224 89-25-25 89-224 224 32 32-16 16-52-52-71.81 71.81A32.1 32.1 0 0 1 442 515c0 17.673-14.327 32-32 32-17.673 0-32-14.327-32-32 0-17.673 14.327-32 32-32a32.1 32.1 0 0 1 7.19.81z" fill="#FFF"/><path d="M729 172l24 24-208 208-24-24 208-208zm33-9l-9 33-24-24 33-9z" fill="#B71C1C"/></g></svg>