<svg width="896" height="896" viewBox="0 0 896 896" xmlns="http://www.w3.org/2000/svg"><g fill="none" fill-rule="evenodd"><path d="M709 408L194 832 34 216l181 366 302-366-64-64 409-89-89 409-64-64z" fill="#B71C1C"/><path d="M513 436l-72 72-24-24 72-72-50.5-50.5L453 344l32 32 224-224 89-25-25 89-224 224 32 32-17.5 14.5L513 436z" fill="#FFF"/><path d="M390.941 488.941l56.569-11.314-11.314 56.569-56.569 11.314 11.314-56.569z" fill="#FFF"/><path d="M729 172l24 24-208 208-24-24 208-208zm33-9l-9 33-24-24 33-9z" fill="#B71C1C"/></g></svg>